G04 EAGLE Gerber RS-274X export*
G75*
%MOMM*%
%FSLAX34Y34*%
%LPD*%
%INSoldermask Bottom*%
%IPPOS*%
%AMOC8*
5,1,8,0,0,1.08239X$1,22.5*%
G01*
%ADD10C,3.454400*%
%ADD11C,2.184400*%
%ADD12C,2.032000*%
%ADD13C,0.251966*%
%ADD14C,1.152400*%
%ADD15C,1.270000*%
%ADD16C,1.652400*%

G36*
X528639Y1206512D02*
X528639Y1206512D01*
X528705Y1206514D01*
X528748Y1206532D01*
X528795Y1206540D01*
X528852Y1206574D01*
X528912Y1206599D01*
X528947Y1206630D01*
X528988Y1206655D01*
X529030Y1206706D01*
X529078Y1206750D01*
X529100Y1206792D01*
X529129Y1206829D01*
X529150Y1206891D01*
X529181Y1206950D01*
X529189Y1207004D01*
X529201Y1207041D01*
X529200Y1207081D01*
X529208Y1207135D01*
X529208Y1210945D01*
X529197Y1211010D01*
X529195Y1211076D01*
X529177Y1211119D01*
X529169Y1211166D01*
X529135Y1211223D01*
X529110Y1211283D01*
X529079Y1211318D01*
X529054Y1211359D01*
X529003Y1211401D01*
X528959Y1211449D01*
X528917Y1211471D01*
X528880Y1211500D01*
X528818Y1211521D01*
X528759Y1211552D01*
X528705Y1211560D01*
X528668Y1211572D01*
X528628Y1211571D01*
X528574Y1211579D01*
X522986Y1211579D01*
X522921Y1211568D01*
X522855Y1211566D01*
X522812Y1211548D01*
X522765Y1211540D01*
X522708Y1211506D01*
X522648Y1211481D01*
X522613Y1211450D01*
X522572Y1211425D01*
X522531Y1211374D01*
X522482Y1211330D01*
X522460Y1211288D01*
X522431Y1211251D01*
X522410Y1211189D01*
X522379Y1211130D01*
X522371Y1211076D01*
X522359Y1211039D01*
X522359Y1211035D01*
X522359Y1211034D01*
X522360Y1210999D01*
X522352Y1210945D01*
X522352Y1207135D01*
X522363Y1207070D01*
X522365Y1207004D01*
X522383Y1206961D01*
X522391Y1206914D01*
X522425Y1206857D01*
X522450Y1206797D01*
X522481Y1206762D01*
X522506Y1206721D01*
X522557Y1206680D01*
X522601Y1206631D01*
X522643Y1206609D01*
X522680Y1206580D01*
X522742Y1206559D01*
X522801Y1206528D01*
X522855Y1206520D01*
X522892Y1206508D01*
X522932Y1206509D01*
X522986Y1206501D01*
X528574Y1206501D01*
X528639Y1206512D01*
G37*
G36*
X167959Y1206512D02*
X167959Y1206512D01*
X168025Y1206514D01*
X168068Y1206532D01*
X168115Y1206540D01*
X168172Y1206574D01*
X168232Y1206599D01*
X168267Y1206630D01*
X168308Y1206655D01*
X168350Y1206706D01*
X168398Y1206750D01*
X168420Y1206792D01*
X168449Y1206829D01*
X168470Y1206891D01*
X168501Y1206950D01*
X168509Y1207004D01*
X168521Y1207041D01*
X168520Y1207081D01*
X168528Y1207135D01*
X168528Y1210945D01*
X168517Y1211010D01*
X168515Y1211076D01*
X168497Y1211119D01*
X168489Y1211166D01*
X168455Y1211223D01*
X168430Y1211283D01*
X168399Y1211318D01*
X168374Y1211359D01*
X168323Y1211401D01*
X168279Y1211449D01*
X168237Y1211471D01*
X168200Y1211500D01*
X168138Y1211521D01*
X168079Y1211552D01*
X168025Y1211560D01*
X167988Y1211572D01*
X167948Y1211571D01*
X167894Y1211579D01*
X162306Y1211579D01*
X162241Y1211568D01*
X162175Y1211566D01*
X162132Y1211548D01*
X162085Y1211540D01*
X162028Y1211506D01*
X161968Y1211481D01*
X161933Y1211450D01*
X161892Y1211425D01*
X161851Y1211374D01*
X161802Y1211330D01*
X161780Y1211288D01*
X161751Y1211251D01*
X161730Y1211189D01*
X161699Y1211130D01*
X161691Y1211076D01*
X161679Y1211039D01*
X161679Y1211035D01*
X161679Y1211034D01*
X161680Y1210999D01*
X161672Y1210945D01*
X161672Y1207135D01*
X161683Y1207070D01*
X161685Y1207004D01*
X161703Y1206961D01*
X161711Y1206914D01*
X161745Y1206857D01*
X161770Y1206797D01*
X161801Y1206762D01*
X161826Y1206721D01*
X161877Y1206680D01*
X161921Y1206631D01*
X161963Y1206609D01*
X162000Y1206580D01*
X162062Y1206559D01*
X162121Y1206528D01*
X162175Y1206520D01*
X162212Y1206508D01*
X162252Y1206509D01*
X162306Y1206501D01*
X167894Y1206501D01*
X167959Y1206512D01*
G37*
G36*
X1249999Y1206512D02*
X1249999Y1206512D01*
X1250065Y1206514D01*
X1250108Y1206532D01*
X1250155Y1206540D01*
X1250212Y1206574D01*
X1250272Y1206599D01*
X1250307Y1206630D01*
X1250348Y1206655D01*
X1250390Y1206706D01*
X1250438Y1206750D01*
X1250460Y1206792D01*
X1250489Y1206829D01*
X1250510Y1206891D01*
X1250541Y1206950D01*
X1250549Y1207004D01*
X1250561Y1207041D01*
X1250560Y1207081D01*
X1250568Y1207135D01*
X1250568Y1210945D01*
X1250557Y1211010D01*
X1250555Y1211076D01*
X1250537Y1211119D01*
X1250529Y1211166D01*
X1250495Y1211223D01*
X1250470Y1211283D01*
X1250439Y1211318D01*
X1250414Y1211359D01*
X1250363Y1211401D01*
X1250319Y1211449D01*
X1250277Y1211471D01*
X1250240Y1211500D01*
X1250178Y1211521D01*
X1250119Y1211552D01*
X1250065Y1211560D01*
X1250028Y1211572D01*
X1249988Y1211571D01*
X1249934Y1211579D01*
X1244346Y1211579D01*
X1244281Y1211568D01*
X1244215Y1211566D01*
X1244172Y1211548D01*
X1244125Y1211540D01*
X1244068Y1211506D01*
X1244008Y1211481D01*
X1243973Y1211450D01*
X1243932Y1211425D01*
X1243891Y1211374D01*
X1243842Y1211330D01*
X1243820Y1211288D01*
X1243791Y1211251D01*
X1243770Y1211189D01*
X1243739Y1211130D01*
X1243731Y1211076D01*
X1243719Y1211039D01*
X1243719Y1211035D01*
X1243719Y1211034D01*
X1243720Y1210999D01*
X1243712Y1210945D01*
X1243712Y1207135D01*
X1243723Y1207070D01*
X1243725Y1207004D01*
X1243743Y1206961D01*
X1243751Y1206914D01*
X1243785Y1206857D01*
X1243810Y1206797D01*
X1243841Y1206762D01*
X1243866Y1206721D01*
X1243917Y1206680D01*
X1243961Y1206631D01*
X1244003Y1206609D01*
X1244040Y1206580D01*
X1244102Y1206559D01*
X1244161Y1206528D01*
X1244215Y1206520D01*
X1244252Y1206508D01*
X1244292Y1206509D01*
X1244346Y1206501D01*
X1249934Y1206501D01*
X1249999Y1206512D01*
G37*
G36*
X889319Y1206512D02*
X889319Y1206512D01*
X889385Y1206514D01*
X889428Y1206532D01*
X889475Y1206540D01*
X889532Y1206574D01*
X889592Y1206599D01*
X889627Y1206630D01*
X889668Y1206655D01*
X889710Y1206706D01*
X889758Y1206750D01*
X889780Y1206792D01*
X889809Y1206829D01*
X889830Y1206891D01*
X889861Y1206950D01*
X889869Y1207004D01*
X889881Y1207041D01*
X889880Y1207081D01*
X889888Y1207135D01*
X889888Y1210945D01*
X889877Y1211010D01*
X889875Y1211076D01*
X889857Y1211119D01*
X889849Y1211166D01*
X889815Y1211223D01*
X889790Y1211283D01*
X889759Y1211318D01*
X889734Y1211359D01*
X889683Y1211401D01*
X889639Y1211449D01*
X889597Y1211471D01*
X889560Y1211500D01*
X889498Y1211521D01*
X889439Y1211552D01*
X889385Y1211560D01*
X889348Y1211572D01*
X889308Y1211571D01*
X889254Y1211579D01*
X883666Y1211579D01*
X883601Y1211568D01*
X883535Y1211566D01*
X883492Y1211548D01*
X883445Y1211540D01*
X883388Y1211506D01*
X883328Y1211481D01*
X883293Y1211450D01*
X883252Y1211425D01*
X883211Y1211374D01*
X883162Y1211330D01*
X883140Y1211288D01*
X883111Y1211251D01*
X883090Y1211189D01*
X883059Y1211130D01*
X883051Y1211076D01*
X883039Y1211039D01*
X883039Y1211035D01*
X883039Y1211034D01*
X883040Y1210999D01*
X883032Y1210945D01*
X883032Y1207135D01*
X883043Y1207070D01*
X883045Y1207004D01*
X883063Y1206961D01*
X883071Y1206914D01*
X883105Y1206857D01*
X883130Y1206797D01*
X883161Y1206762D01*
X883186Y1206721D01*
X883237Y1206680D01*
X883281Y1206631D01*
X883323Y1206609D01*
X883360Y1206580D01*
X883422Y1206559D01*
X883481Y1206528D01*
X883535Y1206520D01*
X883572Y1206508D01*
X883612Y1206509D01*
X883666Y1206501D01*
X889254Y1206501D01*
X889319Y1206512D01*
G37*
G36*
X1249999Y858532D02*
X1249999Y858532D01*
X1250065Y858534D01*
X1250108Y858552D01*
X1250155Y858560D01*
X1250212Y858594D01*
X1250272Y858619D01*
X1250307Y858650D01*
X1250348Y858675D01*
X1250390Y858726D01*
X1250438Y858770D01*
X1250460Y858812D01*
X1250489Y858849D01*
X1250510Y858911D01*
X1250541Y858970D01*
X1250549Y859024D01*
X1250561Y859061D01*
X1250560Y859101D01*
X1250568Y859155D01*
X1250568Y862965D01*
X1250557Y863030D01*
X1250555Y863096D01*
X1250537Y863139D01*
X1250529Y863186D01*
X1250495Y863243D01*
X1250470Y863303D01*
X1250439Y863338D01*
X1250414Y863379D01*
X1250363Y863421D01*
X1250319Y863469D01*
X1250277Y863491D01*
X1250240Y863520D01*
X1250178Y863541D01*
X1250119Y863572D01*
X1250065Y863580D01*
X1250028Y863592D01*
X1249988Y863591D01*
X1249934Y863599D01*
X1244346Y863599D01*
X1244281Y863588D01*
X1244215Y863586D01*
X1244172Y863568D01*
X1244125Y863560D01*
X1244068Y863526D01*
X1244008Y863501D01*
X1243973Y863470D01*
X1243932Y863445D01*
X1243891Y863394D01*
X1243842Y863350D01*
X1243820Y863308D01*
X1243791Y863271D01*
X1243770Y863209D01*
X1243739Y863150D01*
X1243731Y863096D01*
X1243719Y863059D01*
X1243719Y863055D01*
X1243719Y863054D01*
X1243720Y863019D01*
X1243712Y862965D01*
X1243712Y859155D01*
X1243723Y859090D01*
X1243725Y859024D01*
X1243743Y858981D01*
X1243751Y858934D01*
X1243785Y858877D01*
X1243810Y858817D01*
X1243841Y858782D01*
X1243866Y858741D01*
X1243917Y858700D01*
X1243961Y858651D01*
X1244003Y858629D01*
X1244040Y858600D01*
X1244102Y858579D01*
X1244161Y858548D01*
X1244215Y858540D01*
X1244252Y858528D01*
X1244292Y858529D01*
X1244346Y858521D01*
X1249934Y858521D01*
X1249999Y858532D01*
G37*
G36*
X889319Y858532D02*
X889319Y858532D01*
X889385Y858534D01*
X889428Y858552D01*
X889475Y858560D01*
X889532Y858594D01*
X889592Y858619D01*
X889627Y858650D01*
X889668Y858675D01*
X889710Y858726D01*
X889758Y858770D01*
X889780Y858812D01*
X889809Y858849D01*
X889830Y858911D01*
X889861Y858970D01*
X889869Y859024D01*
X889881Y859061D01*
X889880Y859101D01*
X889888Y859155D01*
X889888Y862965D01*
X889877Y863030D01*
X889875Y863096D01*
X889857Y863139D01*
X889849Y863186D01*
X889815Y863243D01*
X889790Y863303D01*
X889759Y863338D01*
X889734Y863379D01*
X889683Y863421D01*
X889639Y863469D01*
X889597Y863491D01*
X889560Y863520D01*
X889498Y863541D01*
X889439Y863572D01*
X889385Y863580D01*
X889348Y863592D01*
X889308Y863591D01*
X889254Y863599D01*
X883666Y863599D01*
X883601Y863588D01*
X883535Y863586D01*
X883492Y863568D01*
X883445Y863560D01*
X883388Y863526D01*
X883328Y863501D01*
X883293Y863470D01*
X883252Y863445D01*
X883211Y863394D01*
X883162Y863350D01*
X883140Y863308D01*
X883111Y863271D01*
X883090Y863209D01*
X883059Y863150D01*
X883051Y863096D01*
X883039Y863059D01*
X883039Y863055D01*
X883039Y863054D01*
X883040Y863019D01*
X883032Y862965D01*
X883032Y859155D01*
X883043Y859090D01*
X883045Y859024D01*
X883063Y858981D01*
X883071Y858934D01*
X883105Y858877D01*
X883130Y858817D01*
X883161Y858782D01*
X883186Y858741D01*
X883237Y858700D01*
X883281Y858651D01*
X883323Y858629D01*
X883360Y858600D01*
X883422Y858579D01*
X883481Y858548D01*
X883535Y858540D01*
X883572Y858528D01*
X883612Y858529D01*
X883666Y858521D01*
X889254Y858521D01*
X889319Y858532D01*
G37*
G36*
X528639Y858532D02*
X528639Y858532D01*
X528705Y858534D01*
X528748Y858552D01*
X528795Y858560D01*
X528852Y858594D01*
X528912Y858619D01*
X528947Y858650D01*
X528988Y858675D01*
X529030Y858726D01*
X529078Y858770D01*
X529100Y858812D01*
X529129Y858849D01*
X529150Y858911D01*
X529181Y858970D01*
X529189Y859024D01*
X529201Y859061D01*
X529200Y859101D01*
X529208Y859155D01*
X529208Y862965D01*
X529197Y863030D01*
X529195Y863096D01*
X529177Y863139D01*
X529169Y863186D01*
X529135Y863243D01*
X529110Y863303D01*
X529079Y863338D01*
X529054Y863379D01*
X529003Y863421D01*
X528959Y863469D01*
X528917Y863491D01*
X528880Y863520D01*
X528818Y863541D01*
X528759Y863572D01*
X528705Y863580D01*
X528668Y863592D01*
X528628Y863591D01*
X528574Y863599D01*
X522986Y863599D01*
X522921Y863588D01*
X522855Y863586D01*
X522812Y863568D01*
X522765Y863560D01*
X522708Y863526D01*
X522648Y863501D01*
X522613Y863470D01*
X522572Y863445D01*
X522531Y863394D01*
X522482Y863350D01*
X522460Y863308D01*
X522431Y863271D01*
X522410Y863209D01*
X522379Y863150D01*
X522371Y863096D01*
X522359Y863059D01*
X522359Y863055D01*
X522359Y863054D01*
X522360Y863019D01*
X522352Y862965D01*
X522352Y859155D01*
X522363Y859090D01*
X522365Y859024D01*
X522383Y858981D01*
X522391Y858934D01*
X522425Y858877D01*
X522450Y858817D01*
X522481Y858782D01*
X522506Y858741D01*
X522557Y858700D01*
X522601Y858651D01*
X522643Y858629D01*
X522680Y858600D01*
X522742Y858579D01*
X522801Y858548D01*
X522855Y858540D01*
X522892Y858528D01*
X522932Y858529D01*
X522986Y858521D01*
X528574Y858521D01*
X528639Y858532D01*
G37*
G36*
X167959Y858532D02*
X167959Y858532D01*
X168025Y858534D01*
X168068Y858552D01*
X168115Y858560D01*
X168172Y858594D01*
X168232Y858619D01*
X168267Y858650D01*
X168308Y858675D01*
X168350Y858726D01*
X168398Y858770D01*
X168420Y858812D01*
X168449Y858849D01*
X168470Y858911D01*
X168501Y858970D01*
X168509Y859024D01*
X168521Y859061D01*
X168520Y859101D01*
X168528Y859155D01*
X168528Y862965D01*
X168517Y863030D01*
X168515Y863096D01*
X168497Y863139D01*
X168489Y863186D01*
X168455Y863243D01*
X168430Y863303D01*
X168399Y863338D01*
X168374Y863379D01*
X168323Y863421D01*
X168279Y863469D01*
X168237Y863491D01*
X168200Y863520D01*
X168138Y863541D01*
X168079Y863572D01*
X168025Y863580D01*
X167988Y863592D01*
X167948Y863591D01*
X167894Y863599D01*
X162306Y863599D01*
X162241Y863588D01*
X162175Y863586D01*
X162132Y863568D01*
X162085Y863560D01*
X162028Y863526D01*
X161968Y863501D01*
X161933Y863470D01*
X161892Y863445D01*
X161851Y863394D01*
X161802Y863350D01*
X161780Y863308D01*
X161751Y863271D01*
X161730Y863209D01*
X161699Y863150D01*
X161691Y863096D01*
X161679Y863059D01*
X161679Y863055D01*
X161679Y863054D01*
X161680Y863019D01*
X161672Y862965D01*
X161672Y859155D01*
X161683Y859090D01*
X161685Y859024D01*
X161703Y858981D01*
X161711Y858934D01*
X161745Y858877D01*
X161770Y858817D01*
X161801Y858782D01*
X161826Y858741D01*
X161877Y858700D01*
X161921Y858651D01*
X161963Y858629D01*
X162000Y858600D01*
X162062Y858579D01*
X162121Y858548D01*
X162175Y858540D01*
X162212Y858528D01*
X162252Y858529D01*
X162306Y858521D01*
X167894Y858521D01*
X167959Y858532D01*
G37*
G36*
X1249999Y510552D02*
X1249999Y510552D01*
X1250065Y510554D01*
X1250108Y510572D01*
X1250155Y510580D01*
X1250212Y510614D01*
X1250272Y510639D01*
X1250307Y510670D01*
X1250348Y510695D01*
X1250390Y510746D01*
X1250438Y510790D01*
X1250460Y510832D01*
X1250489Y510869D01*
X1250510Y510931D01*
X1250541Y510990D01*
X1250549Y511044D01*
X1250561Y511081D01*
X1250560Y511121D01*
X1250568Y511175D01*
X1250568Y514985D01*
X1250557Y515050D01*
X1250555Y515116D01*
X1250537Y515159D01*
X1250529Y515206D01*
X1250495Y515263D01*
X1250470Y515323D01*
X1250439Y515358D01*
X1250414Y515399D01*
X1250363Y515441D01*
X1250319Y515489D01*
X1250277Y515511D01*
X1250240Y515540D01*
X1250178Y515561D01*
X1250119Y515592D01*
X1250065Y515600D01*
X1250028Y515612D01*
X1249988Y515611D01*
X1249934Y515619D01*
X1244346Y515619D01*
X1244281Y515608D01*
X1244215Y515606D01*
X1244172Y515588D01*
X1244125Y515580D01*
X1244068Y515546D01*
X1244008Y515521D01*
X1243973Y515490D01*
X1243932Y515465D01*
X1243891Y515414D01*
X1243842Y515370D01*
X1243820Y515328D01*
X1243791Y515291D01*
X1243770Y515229D01*
X1243739Y515170D01*
X1243731Y515116D01*
X1243719Y515079D01*
X1243719Y515075D01*
X1243719Y515074D01*
X1243720Y515039D01*
X1243712Y514985D01*
X1243712Y511175D01*
X1243723Y511110D01*
X1243725Y511044D01*
X1243743Y511001D01*
X1243751Y510954D01*
X1243785Y510897D01*
X1243810Y510837D01*
X1243841Y510802D01*
X1243866Y510761D01*
X1243917Y510720D01*
X1243961Y510671D01*
X1244003Y510649D01*
X1244040Y510620D01*
X1244102Y510599D01*
X1244161Y510568D01*
X1244215Y510560D01*
X1244252Y510548D01*
X1244292Y510549D01*
X1244346Y510541D01*
X1249934Y510541D01*
X1249999Y510552D01*
G37*
G36*
X889319Y510552D02*
X889319Y510552D01*
X889385Y510554D01*
X889428Y510572D01*
X889475Y510580D01*
X889532Y510614D01*
X889592Y510639D01*
X889627Y510670D01*
X889668Y510695D01*
X889710Y510746D01*
X889758Y510790D01*
X889780Y510832D01*
X889809Y510869D01*
X889830Y510931D01*
X889861Y510990D01*
X889869Y511044D01*
X889881Y511081D01*
X889880Y511121D01*
X889888Y511175D01*
X889888Y514985D01*
X889877Y515050D01*
X889875Y515116D01*
X889857Y515159D01*
X889849Y515206D01*
X889815Y515263D01*
X889790Y515323D01*
X889759Y515358D01*
X889734Y515399D01*
X889683Y515441D01*
X889639Y515489D01*
X889597Y515511D01*
X889560Y515540D01*
X889498Y515561D01*
X889439Y515592D01*
X889385Y515600D01*
X889348Y515612D01*
X889308Y515611D01*
X889254Y515619D01*
X883666Y515619D01*
X883601Y515608D01*
X883535Y515606D01*
X883492Y515588D01*
X883445Y515580D01*
X883388Y515546D01*
X883328Y515521D01*
X883293Y515490D01*
X883252Y515465D01*
X883211Y515414D01*
X883162Y515370D01*
X883140Y515328D01*
X883111Y515291D01*
X883090Y515229D01*
X883059Y515170D01*
X883051Y515116D01*
X883039Y515079D01*
X883039Y515075D01*
X883039Y515074D01*
X883040Y515039D01*
X883032Y514985D01*
X883032Y511175D01*
X883043Y511110D01*
X883045Y511044D01*
X883063Y511001D01*
X883071Y510954D01*
X883105Y510897D01*
X883130Y510837D01*
X883161Y510802D01*
X883186Y510761D01*
X883237Y510720D01*
X883281Y510671D01*
X883323Y510649D01*
X883360Y510620D01*
X883422Y510599D01*
X883481Y510568D01*
X883535Y510560D01*
X883572Y510548D01*
X883612Y510549D01*
X883666Y510541D01*
X889254Y510541D01*
X889319Y510552D01*
G37*
G36*
X528639Y510552D02*
X528639Y510552D01*
X528705Y510554D01*
X528748Y510572D01*
X528795Y510580D01*
X528852Y510614D01*
X528912Y510639D01*
X528947Y510670D01*
X528988Y510695D01*
X529030Y510746D01*
X529078Y510790D01*
X529100Y510832D01*
X529129Y510869D01*
X529150Y510931D01*
X529181Y510990D01*
X529189Y511044D01*
X529201Y511081D01*
X529200Y511121D01*
X529208Y511175D01*
X529208Y514985D01*
X529197Y515050D01*
X529195Y515116D01*
X529177Y515159D01*
X529169Y515206D01*
X529135Y515263D01*
X529110Y515323D01*
X529079Y515358D01*
X529054Y515399D01*
X529003Y515441D01*
X528959Y515489D01*
X528917Y515511D01*
X528880Y515540D01*
X528818Y515561D01*
X528759Y515592D01*
X528705Y515600D01*
X528668Y515612D01*
X528628Y515611D01*
X528574Y515619D01*
X522986Y515619D01*
X522921Y515608D01*
X522855Y515606D01*
X522812Y515588D01*
X522765Y515580D01*
X522708Y515546D01*
X522648Y515521D01*
X522613Y515490D01*
X522572Y515465D01*
X522531Y515414D01*
X522482Y515370D01*
X522460Y515328D01*
X522431Y515291D01*
X522410Y515229D01*
X522379Y515170D01*
X522371Y515116D01*
X522359Y515079D01*
X522359Y515075D01*
X522359Y515074D01*
X522360Y515039D01*
X522352Y514985D01*
X522352Y511175D01*
X522363Y511110D01*
X522365Y511044D01*
X522383Y511001D01*
X522391Y510954D01*
X522425Y510897D01*
X522450Y510837D01*
X522481Y510802D01*
X522506Y510761D01*
X522557Y510720D01*
X522601Y510671D01*
X522643Y510649D01*
X522680Y510620D01*
X522742Y510599D01*
X522801Y510568D01*
X522855Y510560D01*
X522892Y510548D01*
X522932Y510549D01*
X522986Y510541D01*
X528574Y510541D01*
X528639Y510552D01*
G37*
G36*
X167959Y510552D02*
X167959Y510552D01*
X168025Y510554D01*
X168068Y510572D01*
X168115Y510580D01*
X168172Y510614D01*
X168232Y510639D01*
X168267Y510670D01*
X168308Y510695D01*
X168350Y510746D01*
X168398Y510790D01*
X168420Y510832D01*
X168449Y510869D01*
X168470Y510931D01*
X168501Y510990D01*
X168509Y511044D01*
X168521Y511081D01*
X168520Y511121D01*
X168528Y511175D01*
X168528Y514985D01*
X168517Y515050D01*
X168515Y515116D01*
X168497Y515159D01*
X168489Y515206D01*
X168455Y515263D01*
X168430Y515323D01*
X168399Y515358D01*
X168374Y515399D01*
X168323Y515441D01*
X168279Y515489D01*
X168237Y515511D01*
X168200Y515540D01*
X168138Y515561D01*
X168079Y515592D01*
X168025Y515600D01*
X167988Y515612D01*
X167948Y515611D01*
X167894Y515619D01*
X162306Y515619D01*
X162241Y515608D01*
X162175Y515606D01*
X162132Y515588D01*
X162085Y515580D01*
X162028Y515546D01*
X161968Y515521D01*
X161933Y515490D01*
X161892Y515465D01*
X161851Y515414D01*
X161802Y515370D01*
X161780Y515328D01*
X161751Y515291D01*
X161730Y515229D01*
X161699Y515170D01*
X161691Y515116D01*
X161679Y515079D01*
X161679Y515075D01*
X161679Y515074D01*
X161680Y515039D01*
X161672Y514985D01*
X161672Y511175D01*
X161683Y511110D01*
X161685Y511044D01*
X161703Y511001D01*
X161711Y510954D01*
X161745Y510897D01*
X161770Y510837D01*
X161801Y510802D01*
X161826Y510761D01*
X161877Y510720D01*
X161921Y510671D01*
X161963Y510649D01*
X162000Y510620D01*
X162062Y510599D01*
X162121Y510568D01*
X162175Y510560D01*
X162212Y510548D01*
X162252Y510549D01*
X162306Y510541D01*
X167894Y510541D01*
X167959Y510552D01*
G37*
G36*
X1249999Y162572D02*
X1249999Y162572D01*
X1250065Y162574D01*
X1250108Y162592D01*
X1250155Y162600D01*
X1250212Y162634D01*
X1250272Y162659D01*
X1250307Y162690D01*
X1250348Y162715D01*
X1250390Y162766D01*
X1250438Y162810D01*
X1250460Y162852D01*
X1250489Y162889D01*
X1250510Y162951D01*
X1250541Y163010D01*
X1250549Y163064D01*
X1250561Y163101D01*
X1250560Y163141D01*
X1250568Y163195D01*
X1250568Y167005D01*
X1250557Y167070D01*
X1250555Y167136D01*
X1250537Y167179D01*
X1250529Y167226D01*
X1250495Y167283D01*
X1250470Y167343D01*
X1250439Y167378D01*
X1250414Y167419D01*
X1250363Y167461D01*
X1250319Y167509D01*
X1250277Y167531D01*
X1250240Y167560D01*
X1250178Y167581D01*
X1250119Y167612D01*
X1250065Y167620D01*
X1250028Y167632D01*
X1249988Y167631D01*
X1249934Y167639D01*
X1244346Y167639D01*
X1244281Y167628D01*
X1244215Y167626D01*
X1244172Y167608D01*
X1244125Y167600D01*
X1244068Y167566D01*
X1244008Y167541D01*
X1243973Y167510D01*
X1243932Y167485D01*
X1243891Y167434D01*
X1243842Y167390D01*
X1243820Y167348D01*
X1243791Y167311D01*
X1243770Y167249D01*
X1243739Y167190D01*
X1243731Y167136D01*
X1243719Y167099D01*
X1243719Y167095D01*
X1243719Y167094D01*
X1243720Y167059D01*
X1243712Y167005D01*
X1243712Y163195D01*
X1243723Y163130D01*
X1243725Y163064D01*
X1243743Y163021D01*
X1243751Y162974D01*
X1243785Y162917D01*
X1243810Y162857D01*
X1243841Y162822D01*
X1243866Y162781D01*
X1243917Y162740D01*
X1243961Y162691D01*
X1244003Y162669D01*
X1244040Y162640D01*
X1244102Y162619D01*
X1244161Y162588D01*
X1244215Y162580D01*
X1244252Y162568D01*
X1244292Y162569D01*
X1244346Y162561D01*
X1249934Y162561D01*
X1249999Y162572D01*
G37*
G36*
X889319Y162572D02*
X889319Y162572D01*
X889385Y162574D01*
X889428Y162592D01*
X889475Y162600D01*
X889532Y162634D01*
X889592Y162659D01*
X889627Y162690D01*
X889668Y162715D01*
X889710Y162766D01*
X889758Y162810D01*
X889780Y162852D01*
X889809Y162889D01*
X889830Y162951D01*
X889861Y163010D01*
X889869Y163064D01*
X889881Y163101D01*
X889880Y163141D01*
X889888Y163195D01*
X889888Y167005D01*
X889877Y167070D01*
X889875Y167136D01*
X889857Y167179D01*
X889849Y167226D01*
X889815Y167283D01*
X889790Y167343D01*
X889759Y167378D01*
X889734Y167419D01*
X889683Y167461D01*
X889639Y167509D01*
X889597Y167531D01*
X889560Y167560D01*
X889498Y167581D01*
X889439Y167612D01*
X889385Y167620D01*
X889348Y167632D01*
X889308Y167631D01*
X889254Y167639D01*
X883666Y167639D01*
X883601Y167628D01*
X883535Y167626D01*
X883492Y167608D01*
X883445Y167600D01*
X883388Y167566D01*
X883328Y167541D01*
X883293Y167510D01*
X883252Y167485D01*
X883211Y167434D01*
X883162Y167390D01*
X883140Y167348D01*
X883111Y167311D01*
X883090Y167249D01*
X883059Y167190D01*
X883051Y167136D01*
X883039Y167099D01*
X883039Y167095D01*
X883039Y167094D01*
X883040Y167059D01*
X883032Y167005D01*
X883032Y163195D01*
X883043Y163130D01*
X883045Y163064D01*
X883063Y163021D01*
X883071Y162974D01*
X883105Y162917D01*
X883130Y162857D01*
X883161Y162822D01*
X883186Y162781D01*
X883237Y162740D01*
X883281Y162691D01*
X883323Y162669D01*
X883360Y162640D01*
X883422Y162619D01*
X883481Y162588D01*
X883535Y162580D01*
X883572Y162568D01*
X883612Y162569D01*
X883666Y162561D01*
X889254Y162561D01*
X889319Y162572D01*
G37*
G36*
X528639Y162572D02*
X528639Y162572D01*
X528705Y162574D01*
X528748Y162592D01*
X528795Y162600D01*
X528852Y162634D01*
X528912Y162659D01*
X528947Y162690D01*
X528988Y162715D01*
X529030Y162766D01*
X529078Y162810D01*
X529100Y162852D01*
X529129Y162889D01*
X529150Y162951D01*
X529181Y163010D01*
X529189Y163064D01*
X529201Y163101D01*
X529200Y163141D01*
X529208Y163195D01*
X529208Y167005D01*
X529197Y167070D01*
X529195Y167136D01*
X529177Y167179D01*
X529169Y167226D01*
X529135Y167283D01*
X529110Y167343D01*
X529079Y167378D01*
X529054Y167419D01*
X529003Y167461D01*
X528959Y167509D01*
X528917Y167531D01*
X528880Y167560D01*
X528818Y167581D01*
X528759Y167612D01*
X528705Y167620D01*
X528668Y167632D01*
X528628Y167631D01*
X528574Y167639D01*
X522986Y167639D01*
X522921Y167628D01*
X522855Y167626D01*
X522812Y167608D01*
X522765Y167600D01*
X522708Y167566D01*
X522648Y167541D01*
X522613Y167510D01*
X522572Y167485D01*
X522531Y167434D01*
X522482Y167390D01*
X522460Y167348D01*
X522431Y167311D01*
X522410Y167249D01*
X522379Y167190D01*
X522371Y167136D01*
X522359Y167099D01*
X522359Y167095D01*
X522359Y167094D01*
X522360Y167059D01*
X522352Y167005D01*
X522352Y163195D01*
X522363Y163130D01*
X522365Y163064D01*
X522383Y163021D01*
X522391Y162974D01*
X522425Y162917D01*
X522450Y162857D01*
X522481Y162822D01*
X522506Y162781D01*
X522557Y162740D01*
X522601Y162691D01*
X522643Y162669D01*
X522680Y162640D01*
X522742Y162619D01*
X522801Y162588D01*
X522855Y162580D01*
X522892Y162568D01*
X522932Y162569D01*
X522986Y162561D01*
X528574Y162561D01*
X528639Y162572D01*
G37*
G36*
X167959Y162572D02*
X167959Y162572D01*
X168025Y162574D01*
X168068Y162592D01*
X168115Y162600D01*
X168172Y162634D01*
X168232Y162659D01*
X168267Y162690D01*
X168308Y162715D01*
X168350Y162766D01*
X168398Y162810D01*
X168420Y162852D01*
X168449Y162889D01*
X168470Y162951D01*
X168501Y163010D01*
X168509Y163064D01*
X168521Y163101D01*
X168520Y163141D01*
X168528Y163195D01*
X168528Y167005D01*
X168517Y167070D01*
X168515Y167136D01*
X168497Y167179D01*
X168489Y167226D01*
X168455Y167283D01*
X168430Y167343D01*
X168399Y167378D01*
X168374Y167419D01*
X168323Y167461D01*
X168279Y167509D01*
X168237Y167531D01*
X168200Y167560D01*
X168138Y167581D01*
X168079Y167612D01*
X168025Y167620D01*
X167988Y167632D01*
X167948Y167631D01*
X167894Y167639D01*
X162306Y167639D01*
X162241Y167628D01*
X162175Y167626D01*
X162132Y167608D01*
X162085Y167600D01*
X162028Y167566D01*
X161968Y167541D01*
X161933Y167510D01*
X161892Y167485D01*
X161851Y167434D01*
X161802Y167390D01*
X161780Y167348D01*
X161751Y167311D01*
X161730Y167249D01*
X161699Y167190D01*
X161691Y167136D01*
X161679Y167099D01*
X161679Y167095D01*
X161679Y167094D01*
X161680Y167059D01*
X161672Y167005D01*
X161672Y163195D01*
X161683Y163130D01*
X161685Y163064D01*
X161703Y163021D01*
X161711Y162974D01*
X161745Y162917D01*
X161770Y162857D01*
X161801Y162822D01*
X161826Y162781D01*
X161877Y162740D01*
X161921Y162691D01*
X161963Y162669D01*
X162000Y162640D01*
X162062Y162619D01*
X162121Y162588D01*
X162175Y162580D01*
X162212Y162568D01*
X162252Y162569D01*
X162306Y162561D01*
X167894Y162561D01*
X167959Y162572D01*
G37*
D10*
X25400Y25400D03*
X330200Y25400D03*
X330200Y317500D03*
X25400Y317500D03*
D11*
X50800Y228600D03*
X96520Y228600D03*
D12*
X342900Y203200D03*
X342900Y177800D03*
X342900Y152400D03*
X342900Y127000D03*
X12700Y88900D03*
X12700Y114300D03*
D13*
X159248Y167503D02*
X159248Y172857D01*
X170952Y172857D01*
X170952Y167503D01*
X159248Y167503D01*
X159248Y169897D02*
X170952Y169897D01*
X170952Y172291D02*
X159248Y172291D01*
X159248Y162697D02*
X159248Y157343D01*
X159248Y162697D02*
X170952Y162697D01*
X170952Y157343D01*
X159248Y157343D01*
X159248Y159737D02*
X170952Y159737D01*
X170952Y162131D02*
X159248Y162131D01*
D12*
X165100Y177800D03*
X165100Y152400D03*
D10*
X386080Y25400D03*
X690880Y25400D03*
X690880Y317500D03*
X386080Y317500D03*
D11*
X411480Y228600D03*
X457200Y228600D03*
D12*
X703580Y203200D03*
X703580Y177800D03*
X703580Y152400D03*
X703580Y127000D03*
X373380Y88900D03*
X373380Y114300D03*
D13*
X519928Y167503D02*
X519928Y172857D01*
X531632Y172857D01*
X531632Y167503D01*
X519928Y167503D01*
X519928Y169897D02*
X531632Y169897D01*
X531632Y172291D02*
X519928Y172291D01*
X519928Y162697D02*
X519928Y157343D01*
X519928Y162697D02*
X531632Y162697D01*
X531632Y157343D01*
X519928Y157343D01*
X519928Y159737D02*
X531632Y159737D01*
X531632Y162131D02*
X519928Y162131D01*
D12*
X525780Y177800D03*
X525780Y152400D03*
D10*
X746760Y25400D03*
X1051560Y25400D03*
X1051560Y317500D03*
X746760Y317500D03*
D11*
X772160Y228600D03*
X817880Y228600D03*
D12*
X1064260Y203200D03*
X1064260Y177800D03*
X1064260Y152400D03*
X1064260Y127000D03*
X734060Y88900D03*
X734060Y114300D03*
D13*
X880608Y167503D02*
X880608Y172857D01*
X892312Y172857D01*
X892312Y167503D01*
X880608Y167503D01*
X880608Y169897D02*
X892312Y169897D01*
X892312Y172291D02*
X880608Y172291D01*
X880608Y162697D02*
X880608Y157343D01*
X880608Y162697D02*
X892312Y162697D01*
X892312Y157343D01*
X880608Y157343D01*
X880608Y159737D02*
X892312Y159737D01*
X892312Y162131D02*
X880608Y162131D01*
D12*
X886460Y177800D03*
X886460Y152400D03*
D10*
X1107440Y25400D03*
X1412240Y25400D03*
X1412240Y317500D03*
X1107440Y317500D03*
D11*
X1132840Y228600D03*
X1178560Y228600D03*
D12*
X1424940Y203200D03*
X1424940Y177800D03*
X1424940Y152400D03*
X1424940Y127000D03*
X1094740Y88900D03*
X1094740Y114300D03*
D13*
X1241288Y167503D02*
X1241288Y172857D01*
X1252992Y172857D01*
X1252992Y167503D01*
X1241288Y167503D01*
X1241288Y169897D02*
X1252992Y169897D01*
X1252992Y172291D02*
X1241288Y172291D01*
X1241288Y162697D02*
X1241288Y157343D01*
X1241288Y162697D02*
X1252992Y162697D01*
X1252992Y157343D01*
X1241288Y157343D01*
X1241288Y159737D02*
X1252992Y159737D01*
X1252992Y162131D02*
X1241288Y162131D01*
D12*
X1247140Y177800D03*
X1247140Y152400D03*
D10*
X25400Y373380D03*
X330200Y373380D03*
X330200Y665480D03*
X25400Y665480D03*
D11*
X50800Y576580D03*
X96520Y576580D03*
D12*
X342900Y551180D03*
X342900Y525780D03*
X342900Y500380D03*
X342900Y474980D03*
X12700Y436880D03*
X12700Y462280D03*
D13*
X159248Y515483D02*
X159248Y520837D01*
X170952Y520837D01*
X170952Y515483D01*
X159248Y515483D01*
X159248Y517877D02*
X170952Y517877D01*
X170952Y520271D02*
X159248Y520271D01*
X159248Y510677D02*
X159248Y505323D01*
X159248Y510677D02*
X170952Y510677D01*
X170952Y505323D01*
X159248Y505323D01*
X159248Y507717D02*
X170952Y507717D01*
X170952Y510111D02*
X159248Y510111D01*
D12*
X165100Y525780D03*
X165100Y500380D03*
D10*
X386080Y373380D03*
X690880Y373380D03*
X690880Y665480D03*
X386080Y665480D03*
D11*
X411480Y576580D03*
X457200Y576580D03*
D12*
X703580Y551180D03*
X703580Y525780D03*
X703580Y500380D03*
X703580Y474980D03*
X373380Y436880D03*
X373380Y462280D03*
D13*
X519928Y515483D02*
X519928Y520837D01*
X531632Y520837D01*
X531632Y515483D01*
X519928Y515483D01*
X519928Y517877D02*
X531632Y517877D01*
X531632Y520271D02*
X519928Y520271D01*
X519928Y510677D02*
X519928Y505323D01*
X519928Y510677D02*
X531632Y510677D01*
X531632Y505323D01*
X519928Y505323D01*
X519928Y507717D02*
X531632Y507717D01*
X531632Y510111D02*
X519928Y510111D01*
D12*
X525780Y525780D03*
X525780Y500380D03*
D10*
X746760Y373380D03*
X1051560Y373380D03*
X1051560Y665480D03*
X746760Y665480D03*
D11*
X772160Y576580D03*
X817880Y576580D03*
D12*
X1064260Y551180D03*
X1064260Y525780D03*
X1064260Y500380D03*
X1064260Y474980D03*
X734060Y436880D03*
X734060Y462280D03*
D13*
X880608Y515483D02*
X880608Y520837D01*
X892312Y520837D01*
X892312Y515483D01*
X880608Y515483D01*
X880608Y517877D02*
X892312Y517877D01*
X892312Y520271D02*
X880608Y520271D01*
X880608Y510677D02*
X880608Y505323D01*
X880608Y510677D02*
X892312Y510677D01*
X892312Y505323D01*
X880608Y505323D01*
X880608Y507717D02*
X892312Y507717D01*
X892312Y510111D02*
X880608Y510111D01*
D12*
X886460Y525780D03*
X886460Y500380D03*
D10*
X1107440Y373380D03*
X1412240Y373380D03*
X1412240Y665480D03*
X1107440Y665480D03*
D11*
X1132840Y576580D03*
X1178560Y576580D03*
D12*
X1424940Y551180D03*
X1424940Y525780D03*
X1424940Y500380D03*
X1424940Y474980D03*
X1094740Y436880D03*
X1094740Y462280D03*
D13*
X1241288Y515483D02*
X1241288Y520837D01*
X1252992Y520837D01*
X1252992Y515483D01*
X1241288Y515483D01*
X1241288Y517877D02*
X1252992Y517877D01*
X1252992Y520271D02*
X1241288Y520271D01*
X1241288Y510677D02*
X1241288Y505323D01*
X1241288Y510677D02*
X1252992Y510677D01*
X1252992Y505323D01*
X1241288Y505323D01*
X1241288Y507717D02*
X1252992Y507717D01*
X1252992Y510111D02*
X1241288Y510111D01*
D12*
X1247140Y525780D03*
X1247140Y500380D03*
D10*
X25400Y721360D03*
X330200Y721360D03*
X330200Y1013460D03*
X25400Y1013460D03*
D11*
X50800Y924560D03*
X96520Y924560D03*
D12*
X342900Y899160D03*
X342900Y873760D03*
X342900Y848360D03*
X342900Y822960D03*
X12700Y784860D03*
X12700Y810260D03*
D13*
X159248Y863463D02*
X159248Y868817D01*
X170952Y868817D01*
X170952Y863463D01*
X159248Y863463D01*
X159248Y865857D02*
X170952Y865857D01*
X170952Y868251D02*
X159248Y868251D01*
X159248Y858657D02*
X159248Y853303D01*
X159248Y858657D02*
X170952Y858657D01*
X170952Y853303D01*
X159248Y853303D01*
X159248Y855697D02*
X170952Y855697D01*
X170952Y858091D02*
X159248Y858091D01*
D12*
X165100Y873760D03*
X165100Y848360D03*
D10*
X386080Y721360D03*
X690880Y721360D03*
X690880Y1013460D03*
X386080Y1013460D03*
D11*
X411480Y924560D03*
X457200Y924560D03*
D12*
X703580Y899160D03*
X703580Y873760D03*
X703580Y848360D03*
X703580Y822960D03*
X373380Y784860D03*
X373380Y810260D03*
D13*
X519928Y863463D02*
X519928Y868817D01*
X531632Y868817D01*
X531632Y863463D01*
X519928Y863463D01*
X519928Y865857D02*
X531632Y865857D01*
X531632Y868251D02*
X519928Y868251D01*
X519928Y858657D02*
X519928Y853303D01*
X519928Y858657D02*
X531632Y858657D01*
X531632Y853303D01*
X519928Y853303D01*
X519928Y855697D02*
X531632Y855697D01*
X531632Y858091D02*
X519928Y858091D01*
D12*
X525780Y873760D03*
X525780Y848360D03*
D10*
X746760Y721360D03*
X1051560Y721360D03*
X1051560Y1013460D03*
X746760Y1013460D03*
D11*
X772160Y924560D03*
X817880Y924560D03*
D12*
X1064260Y899160D03*
X1064260Y873760D03*
X1064260Y848360D03*
X1064260Y822960D03*
X734060Y784860D03*
X734060Y810260D03*
D13*
X880608Y863463D02*
X880608Y868817D01*
X892312Y868817D01*
X892312Y863463D01*
X880608Y863463D01*
X880608Y865857D02*
X892312Y865857D01*
X892312Y868251D02*
X880608Y868251D01*
X880608Y858657D02*
X880608Y853303D01*
X880608Y858657D02*
X892312Y858657D01*
X892312Y853303D01*
X880608Y853303D01*
X880608Y855697D02*
X892312Y855697D01*
X892312Y858091D02*
X880608Y858091D01*
D12*
X886460Y873760D03*
X886460Y848360D03*
D10*
X1107440Y721360D03*
X1412240Y721360D03*
X1412240Y1013460D03*
X1107440Y1013460D03*
D11*
X1132840Y924560D03*
X1178560Y924560D03*
D12*
X1424940Y899160D03*
X1424940Y873760D03*
X1424940Y848360D03*
X1424940Y822960D03*
X1094740Y784860D03*
X1094740Y810260D03*
D13*
X1241288Y863463D02*
X1241288Y868817D01*
X1252992Y868817D01*
X1252992Y863463D01*
X1241288Y863463D01*
X1241288Y865857D02*
X1252992Y865857D01*
X1252992Y868251D02*
X1241288Y868251D01*
X1241288Y858657D02*
X1241288Y853303D01*
X1241288Y858657D02*
X1252992Y858657D01*
X1252992Y853303D01*
X1241288Y853303D01*
X1241288Y855697D02*
X1252992Y855697D01*
X1252992Y858091D02*
X1241288Y858091D01*
D12*
X1247140Y873760D03*
X1247140Y848360D03*
D10*
X25400Y1069340D03*
X330200Y1069340D03*
X330200Y1361440D03*
X25400Y1361440D03*
D11*
X50800Y1272540D03*
X96520Y1272540D03*
D12*
X342900Y1247140D03*
X342900Y1221740D03*
X342900Y1196340D03*
X342900Y1170940D03*
X12700Y1132840D03*
X12700Y1158240D03*
D13*
X159248Y1211443D02*
X159248Y1216797D01*
X170952Y1216797D01*
X170952Y1211443D01*
X159248Y1211443D01*
X159248Y1213837D02*
X170952Y1213837D01*
X170952Y1216231D02*
X159248Y1216231D01*
X159248Y1206637D02*
X159248Y1201283D01*
X159248Y1206637D02*
X170952Y1206637D01*
X170952Y1201283D01*
X159248Y1201283D01*
X159248Y1203677D02*
X170952Y1203677D01*
X170952Y1206071D02*
X159248Y1206071D01*
D12*
X165100Y1221740D03*
X165100Y1196340D03*
D10*
X386080Y1069340D03*
X690880Y1069340D03*
X690880Y1361440D03*
X386080Y1361440D03*
D11*
X411480Y1272540D03*
X457200Y1272540D03*
D12*
X703580Y1247140D03*
X703580Y1221740D03*
X703580Y1196340D03*
X703580Y1170940D03*
X373380Y1132840D03*
X373380Y1158240D03*
D13*
X519928Y1211443D02*
X519928Y1216797D01*
X531632Y1216797D01*
X531632Y1211443D01*
X519928Y1211443D01*
X519928Y1213837D02*
X531632Y1213837D01*
X531632Y1216231D02*
X519928Y1216231D01*
X519928Y1206637D02*
X519928Y1201283D01*
X519928Y1206637D02*
X531632Y1206637D01*
X531632Y1201283D01*
X519928Y1201283D01*
X519928Y1203677D02*
X531632Y1203677D01*
X531632Y1206071D02*
X519928Y1206071D01*
D12*
X525780Y1221740D03*
X525780Y1196340D03*
D10*
X746760Y1069340D03*
X1051560Y1069340D03*
X1051560Y1361440D03*
X746760Y1361440D03*
D11*
X772160Y1272540D03*
X817880Y1272540D03*
D12*
X1064260Y1247140D03*
X1064260Y1221740D03*
X1064260Y1196340D03*
X1064260Y1170940D03*
X734060Y1132840D03*
X734060Y1158240D03*
D13*
X880608Y1211443D02*
X880608Y1216797D01*
X892312Y1216797D01*
X892312Y1211443D01*
X880608Y1211443D01*
X880608Y1213837D02*
X892312Y1213837D01*
X892312Y1216231D02*
X880608Y1216231D01*
X880608Y1206637D02*
X880608Y1201283D01*
X880608Y1206637D02*
X892312Y1206637D01*
X892312Y1201283D01*
X880608Y1201283D01*
X880608Y1203677D02*
X892312Y1203677D01*
X892312Y1206071D02*
X880608Y1206071D01*
D12*
X886460Y1221740D03*
X886460Y1196340D03*
D10*
X1107440Y1069340D03*
X1412240Y1069340D03*
X1412240Y1361440D03*
X1107440Y1361440D03*
D11*
X1132840Y1272540D03*
X1178560Y1272540D03*
D12*
X1424940Y1247140D03*
X1424940Y1221740D03*
X1424940Y1196340D03*
X1424940Y1170940D03*
X1094740Y1132840D03*
X1094740Y1158240D03*
D13*
X1241288Y1211443D02*
X1241288Y1216797D01*
X1252992Y1216797D01*
X1252992Y1211443D01*
X1241288Y1211443D01*
X1241288Y1213837D02*
X1252992Y1213837D01*
X1252992Y1216231D02*
X1241288Y1216231D01*
X1241288Y1206637D02*
X1241288Y1201283D01*
X1241288Y1206637D02*
X1252992Y1206637D01*
X1252992Y1201283D01*
X1241288Y1201283D01*
X1241288Y1203677D02*
X1252992Y1203677D01*
X1252992Y1206071D02*
X1241288Y1206071D01*
D12*
X1247140Y1221740D03*
X1247140Y1196340D03*
D14*
X-26238Y1360170D03*
X1463878Y1360170D03*
D15*
X-35293Y63500D02*
X-35290Y63722D01*
X-35282Y63944D01*
X-35268Y64166D01*
X-35249Y64388D01*
X-35225Y64608D01*
X-35195Y64829D01*
X-35160Y65048D01*
X-35119Y65267D01*
X-35073Y65484D01*
X-35022Y65700D01*
X-34965Y65915D01*
X-34903Y66129D01*
X-34836Y66340D01*
X-34764Y66551D01*
X-34686Y66759D01*
X-34604Y66965D01*
X-34516Y67169D01*
X-34424Y67372D01*
X-34326Y67571D01*
X-34224Y67768D01*
X-34117Y67963D01*
X-34005Y68155D01*
X-33888Y68344D01*
X-33767Y68531D01*
X-33641Y68714D01*
X-33511Y68894D01*
X-33376Y69071D01*
X-33238Y69244D01*
X-33095Y69414D01*
X-32947Y69581D01*
X-32796Y69744D01*
X-32641Y69903D01*
X-32482Y70058D01*
X-32319Y70209D01*
X-32152Y70357D01*
X-31982Y70500D01*
X-31809Y70638D01*
X-31632Y70773D01*
X-31452Y70903D01*
X-31269Y71029D01*
X-31082Y71150D01*
X-30893Y71267D01*
X-30701Y71379D01*
X-30506Y71486D01*
X-30309Y71588D01*
X-30110Y71686D01*
X-29907Y71778D01*
X-29703Y71866D01*
X-29497Y71948D01*
X-29289Y72026D01*
X-29078Y72098D01*
X-28867Y72165D01*
X-28653Y72227D01*
X-28438Y72284D01*
X-28222Y72335D01*
X-28005Y72381D01*
X-27786Y72422D01*
X-27567Y72457D01*
X-27346Y72487D01*
X-27126Y72511D01*
X-26904Y72530D01*
X-26682Y72544D01*
X-26460Y72552D01*
X-26238Y72555D01*
X-26016Y72552D01*
X-25794Y72544D01*
X-25572Y72530D01*
X-25350Y72511D01*
X-25130Y72487D01*
X-24909Y72457D01*
X-24690Y72422D01*
X-24471Y72381D01*
X-24254Y72335D01*
X-24038Y72284D01*
X-23823Y72227D01*
X-23609Y72165D01*
X-23398Y72098D01*
X-23187Y72026D01*
X-22979Y71948D01*
X-22773Y71866D01*
X-22569Y71778D01*
X-22366Y71686D01*
X-22167Y71588D01*
X-21970Y71486D01*
X-21775Y71379D01*
X-21583Y71267D01*
X-21394Y71150D01*
X-21207Y71029D01*
X-21024Y70903D01*
X-20844Y70773D01*
X-20667Y70638D01*
X-20494Y70500D01*
X-20324Y70357D01*
X-20157Y70209D01*
X-19994Y70058D01*
X-19835Y69903D01*
X-19680Y69744D01*
X-19529Y69581D01*
X-19381Y69414D01*
X-19238Y69244D01*
X-19100Y69071D01*
X-18965Y68894D01*
X-18835Y68714D01*
X-18709Y68531D01*
X-18588Y68344D01*
X-18471Y68155D01*
X-18359Y67963D01*
X-18252Y67768D01*
X-18150Y67571D01*
X-18052Y67372D01*
X-17960Y67169D01*
X-17872Y66965D01*
X-17790Y66759D01*
X-17712Y66551D01*
X-17640Y66340D01*
X-17573Y66129D01*
X-17511Y65915D01*
X-17454Y65700D01*
X-17403Y65484D01*
X-17357Y65267D01*
X-17316Y65048D01*
X-17281Y64829D01*
X-17251Y64608D01*
X-17227Y64388D01*
X-17208Y64166D01*
X-17194Y63944D01*
X-17186Y63722D01*
X-17183Y63500D01*
X-17186Y63278D01*
X-17194Y63056D01*
X-17208Y62834D01*
X-17227Y62612D01*
X-17251Y62392D01*
X-17281Y62171D01*
X-17316Y61952D01*
X-17357Y61733D01*
X-17403Y61516D01*
X-17454Y61300D01*
X-17511Y61085D01*
X-17573Y60871D01*
X-17640Y60660D01*
X-17712Y60449D01*
X-17790Y60241D01*
X-17872Y60035D01*
X-17960Y59831D01*
X-18052Y59628D01*
X-18150Y59429D01*
X-18252Y59232D01*
X-18359Y59037D01*
X-18471Y58845D01*
X-18588Y58656D01*
X-18709Y58469D01*
X-18835Y58286D01*
X-18965Y58106D01*
X-19100Y57929D01*
X-19238Y57756D01*
X-19381Y57586D01*
X-19529Y57419D01*
X-19680Y57256D01*
X-19835Y57097D01*
X-19994Y56942D01*
X-20157Y56791D01*
X-20324Y56643D01*
X-20494Y56500D01*
X-20667Y56362D01*
X-20844Y56227D01*
X-21024Y56097D01*
X-21207Y55971D01*
X-21394Y55850D01*
X-21583Y55733D01*
X-21775Y55621D01*
X-21970Y55514D01*
X-22167Y55412D01*
X-22366Y55314D01*
X-22569Y55222D01*
X-22773Y55134D01*
X-22979Y55052D01*
X-23187Y54974D01*
X-23398Y54902D01*
X-23609Y54835D01*
X-23823Y54773D01*
X-24038Y54716D01*
X-24254Y54665D01*
X-24471Y54619D01*
X-24690Y54578D01*
X-24909Y54543D01*
X-25130Y54513D01*
X-25350Y54489D01*
X-25572Y54470D01*
X-25794Y54456D01*
X-26016Y54448D01*
X-26238Y54445D01*
X-26460Y54448D01*
X-26682Y54456D01*
X-26904Y54470D01*
X-27126Y54489D01*
X-27346Y54513D01*
X-27567Y54543D01*
X-27786Y54578D01*
X-28005Y54619D01*
X-28222Y54665D01*
X-28438Y54716D01*
X-28653Y54773D01*
X-28867Y54835D01*
X-29078Y54902D01*
X-29289Y54974D01*
X-29497Y55052D01*
X-29703Y55134D01*
X-29907Y55222D01*
X-30110Y55314D01*
X-30309Y55412D01*
X-30506Y55514D01*
X-30701Y55621D01*
X-30893Y55733D01*
X-31082Y55850D01*
X-31269Y55971D01*
X-31452Y56097D01*
X-31632Y56227D01*
X-31809Y56362D01*
X-31982Y56500D01*
X-32152Y56643D01*
X-32319Y56791D01*
X-32482Y56942D01*
X-32641Y57097D01*
X-32796Y57256D01*
X-32947Y57419D01*
X-33095Y57586D01*
X-33238Y57756D01*
X-33376Y57929D01*
X-33511Y58106D01*
X-33641Y58286D01*
X-33767Y58469D01*
X-33888Y58656D01*
X-34005Y58845D01*
X-34117Y59037D01*
X-34224Y59232D01*
X-34326Y59429D01*
X-34424Y59628D01*
X-34516Y59831D01*
X-34604Y60035D01*
X-34686Y60241D01*
X-34764Y60449D01*
X-34836Y60660D01*
X-34903Y60871D01*
X-34965Y61085D01*
X-35022Y61300D01*
X-35073Y61516D01*
X-35119Y61733D01*
X-35160Y61952D01*
X-35195Y62171D01*
X-35225Y62392D01*
X-35249Y62612D01*
X-35268Y62834D01*
X-35282Y63056D01*
X-35290Y63278D01*
X-35293Y63500D01*
D16*
X-26238Y63500D03*
M02*
