M48
;GenerationSoftware,Autodesk,EAGLE,9.6.2*%
;CreationDate,2022-03-15T03:14:03Z*%
FMAT,2
ICI,OFF
METRIC,TZ,000.000
T4C0.305
T3C1.016
T2C2.032
T1C3.302
%
G90
M71
T1
X2540Y66548
X33020Y66548
X2540Y2540
X33020Y2540
X33020Y31750
X2540Y31750
X69088Y66548
X38608Y66548
X38608Y2540
X69088Y2540
X69088Y31750
X38608Y31750
X110744Y37338
X141224Y37338
X74676Y2540
X105156Y2540
X105156Y31750
X74676Y31750
X74676Y37338
X105156Y37338
X110744Y2540
X141224Y2540
X141224Y31750
X110744Y31750
X105156Y66548
X74676Y66548
X2540Y37338
X33020Y37338
X69088Y72136
X141224Y66548
X110744Y66548
X38608Y37338
X69088Y37338
X2540Y72136
X33020Y72136
X33020Y101346
X2540Y101346
X38608Y72136
X69088Y101346
X38608Y101346
X74676Y72136
X105156Y72136
X105156Y101346
X74676Y101346
X110744Y72136
X141224Y72136
X141224Y101346
X110744Y101346
X2540Y106934
X33020Y106934
X33020Y136144
X2540Y136144
X38608Y106934
X69088Y106934
X69088Y136144
X38608Y136144
X74676Y106934
X105156Y106934
X105156Y136144
X74676Y136144
X110744Y106934
X141224Y106934
X141224Y136144
X110744Y136144
T2
X41148Y57658
X77216Y92456
X81788Y92456
X45720Y57658
X77216Y57658
X81788Y57658
X113284Y57658
X113284Y92456
X117856Y92456
X117856Y57658
X5080Y22860
X9652Y22860
X41148Y22860
X5080Y127254
X9652Y127254
X45720Y22860
X5080Y92456
X9652Y92456
X77216Y22860
X41148Y127254
X45720Y127254
X117856Y127254
X81788Y22860
X113284Y22860
X41148Y92456
X77216Y127254
X81788Y127254
X45720Y92456
X117856Y22860
X5080Y57658
X9652Y57658
X113284Y127254
T3
X109474Y46228
X34290Y20320
X34290Y17780
X34290Y15240
X34290Y12700
X1270Y8890
X1270Y11430
X16510Y17780
X16510Y15240
X70358Y20320
X70358Y17780
X70358Y15240
X70358Y12700
X37338Y8890
X37338Y11430
X52578Y17780
X52578Y15240
X106426Y20320
X106426Y17780
X106426Y15240
X106426Y12700
X73406Y8890
X73406Y11430
X88646Y17780
X88646Y15240
X142494Y20320
X142494Y17780
X142494Y15240
X142494Y12700
X109474Y8890
X109474Y11430
X124714Y17780
X124714Y15240
X34290Y55118
X34290Y52578
X34290Y50038
X34290Y47498
X1270Y43688
X1270Y46228
X16510Y52578
X16510Y50038
X70358Y55118
X70358Y52578
X70358Y50038
X70358Y47498
X37338Y43688
X37338Y46228
X52578Y52578
X52578Y50038
X106426Y55118
X106426Y52578
X106426Y50038
X106426Y47498
X73406Y43688
X73406Y46228
X88646Y52578
X88646Y50038
X142494Y55118
X142494Y52578
X142494Y50038
X142494Y47498
X109474Y43688
X124714Y52578
X124714Y50038
X34290Y89916
X34290Y87376
X34290Y84836
X34290Y82296
X1270Y78486
X1270Y81026
X16510Y87376
X16510Y84836
X70358Y89916
X70358Y87376
X70358Y84836
X70358Y82296
X37338Y78486
X37338Y81026
X52578Y87376
X52578Y84836
X106426Y89916
X106426Y87376
X106426Y84836
X106426Y82296
X73406Y78486
X73406Y81026
X88646Y87376
X88646Y84836
X142494Y89916
X142494Y87376
X142494Y84836
X142494Y82296
X109474Y78486
X109474Y81026
X124714Y87376
X124714Y84836
X34290Y124714
X34290Y122174
X34290Y119634
X34290Y117094
X1270Y113284
X1270Y115824
X16510Y122174
X16510Y119634
X70358Y124714
X70358Y122174
X70358Y119634
X70358Y117094
X37338Y113284
X37338Y115824
X52578Y122174
X52578Y119634
X106426Y124714
X106426Y122174
X106426Y119634
X106426Y117094
X73406Y113284
X73406Y115824
X88646Y122174
X88646Y119634
X142494Y124714
X142494Y122174
X142494Y119634
X142494Y117094
X109474Y113284
X109474Y115824
X124714Y122174
X124714Y119634
T4
X116840Y89027
X135529Y98571
X132842Y89662
X115316Y73279
X5588Y121285
X11684Y121539
X19304Y121539
X21590Y124714
X24130Y121920
X23368Y127254
X23495Y129921
X21336Y132334
X17145Y132334
X23495Y134747
X27813Y136144
X21590Y118364
X16510Y129794
X29210Y129794
X2540Y123825
X8636Y123825
X27324Y133370
X24638Y124460
X7112Y108077
X41656Y121285
X47752Y121539
X55372Y121539
X57658Y124714
X60198Y121920
X59436Y127254
X59563Y129921
X57404Y132334
X53213Y132334
X59563Y134747
X63881Y136144
X57658Y118364
X52578Y129794
X65278Y129794
X38608Y123825
X44704Y123825
X63392Y133370
X131699Y30353
X43180Y108077
X77724Y121285
X83820Y121539
X91440Y121539
X93726Y124714
X96266Y121920
X95504Y127254
X95631Y129921
X93472Y132334
X89281Y132334
X95631Y134747
X99949Y136144
X93726Y118364
X88646Y129794
X101346Y129794
X74676Y123825
X80772Y123825
X99460Y133370
X96774Y124460
X79248Y108077
X113792Y121285
X119888Y121539
X127508Y121539
X129794Y124714
X132334Y121920
X131572Y127254
X131699Y129921
X129540Y132334
X125349Y132334
X131699Y134747
X136017Y136144
X129794Y118364
X124714Y129794
X137414Y129794
X110744Y123825
X116840Y123825
X135529Y133370
X132842Y124460
X115316Y108077
X5588Y16891
X11684Y17145
X19304Y17145
X21590Y20320
X24130Y17526
X23368Y22860
X23495Y25527
X21336Y27940
X17145Y27940
X23495Y30353
X27813Y31750
X21590Y13970
X16510Y25400
X29210Y25400
X2540Y19431
X8636Y19431
X27324Y28975
X24638Y20066
X7112Y3683
X41656Y16891
X47752Y17145
X55372Y17145
X57658Y20320
X60198Y17526
X59436Y22860
X59563Y25527
X60706Y124460
X57404Y27940
X53213Y27940
X59563Y30353
X63881Y31750
X57658Y13970
X52578Y25400
X65278Y25400
X38608Y19431
X44704Y19431
X63392Y28975
X60706Y20066
X43180Y3683
X77724Y16891
X83820Y17145
X91440Y17145
X93726Y20320
X96266Y17526
X95504Y22860
X95631Y25527
X93472Y27940
X89281Y27940
X95631Y30353
X99949Y31750
X93726Y13970
X88646Y25400
X101346Y25400
X74676Y19431
X80772Y19431
X99460Y28975
X96774Y20066
X79248Y3683
X113792Y16891
X119888Y17145
X127508Y17145
X129794Y20320
X132334Y17526
X131572Y22860
X131699Y25527
X129540Y27940
X125349Y27940
X136017Y31750
X129794Y13970
X124714Y25400
X137414Y25400
X110744Y19431
X116840Y19431
X135529Y28975
X132842Y20066
X115316Y3683
X5588Y51689
X11684Y51943
X19304Y51943
X21590Y55118
X24130Y52324
X23368Y57658
X23495Y60325
X21336Y62738
X17145Y62738
X23495Y65151
X27813Y66548
X21590Y48768
X16510Y60198
X29210Y60198
X2540Y54229
X8636Y54229
X27324Y63773
X24638Y54864
X7112Y38481
X41656Y51689
X47752Y51943
X55372Y51943
X57658Y55118
X60198Y52324
X59436Y57658
X59563Y60325
X57404Y62738
X53213Y62738
X59563Y65151
X63881Y66548
X57658Y48768
X52578Y60198
X65278Y60198
X38608Y54229
X44704Y54229
X63392Y63773
X60706Y54864
X43180Y38481
X77724Y51689
X83820Y51943
X91440Y51943
X93726Y55118
X96266Y52324
X95504Y57658
X95631Y60325
X93472Y62738
X89281Y62738
X95631Y65151
X99949Y66548
X93726Y48768
X88646Y60198
X101346Y60198
X74676Y54229
X80772Y54229
X99460Y63773
X96774Y54864
X79248Y38481
X113792Y51689
X119888Y51943
X127508Y51943
X129794Y55118
X132334Y52324
X131572Y57658
X131699Y60325
X129540Y62738
X125349Y62738
X131699Y65151
X136017Y66548
X129794Y48768
X124714Y60198
X137414Y60198
X110744Y54229
X116840Y54229
X135529Y63773
X132842Y54864
X115316Y38481
X5588Y86487
X11684Y86741
X19304Y86741
X21590Y89916
X24130Y87122
X89281Y97536
X23368Y92456
X23495Y95123
X21336Y97536
X17145Y97536
X23495Y99949
X27813Y101346
X21590Y83566
X16510Y94996
X29210Y94996
X2540Y89027
X8636Y89027
X27324Y98571
X24638Y89662
X7112Y73279
X41656Y86487
X47752Y86741
X55372Y86741
X57658Y89916
X60198Y87122
X59436Y92456
X59563Y95123
X57404Y97536
X53213Y97536
X59563Y99949
X63881Y101346
X57658Y83566
X52578Y94996
X65278Y94996
X38608Y89027
X44704Y89027
X63392Y98571
X60706Y89662
X43180Y73279
X77724Y86487
X83820Y86741
X91440Y86741
X93726Y89916
X96266Y87122
X95504Y92456
X95631Y95123
X93472Y97536
X95631Y99949
X99949Y101346
X93726Y83566
X88646Y94996
X101346Y94996
X74676Y89027
X80772Y89027
X99460Y98571
X96774Y89662
X79248Y73279
X113792Y86487
X119888Y86741
X127508Y86741
X129794Y89916
X132334Y87122
X131572Y92456
X131699Y95123
X129540Y97536
X125349Y97536
X131699Y99949
X136017Y101346
X129794Y83566
X124714Y94996
X137414Y94996
X110744Y89027
M30